/* XPM */
static char * door_xpm[] = {
"64 64 216 2",
"  	c None",
". 	c #47704C",
"+ 	c #6C452F",
"@ 	c #6A714D",
"# 	c #68412B",
"$ 	c #69422C",
"% 	c #6A432D",
"& 	c #6B442E",
"* 	c #757F53",
"= 	c #973C23",
"- 	c #6A432E",
"; 	c #6D4631",
"> 	c #803526",
", 	c #69422D",
"' 	c #6B442F",
") 	c #68412C",
"! 	c #515A2E",
"~ 	c #691503",
"{ 	c #6C4530",
"] 	c #67402A",
"^ 	c #728456",
"/ 	c #9D5427",
"( 	c #67402B",
"_ 	c #69432D",
": 	c #6E4731",
"< 	c #663F2A",
"[ 	c #6F4833",
"} 	c #6C4630",
"| 	c #4C3727",
"1 	c #653E28",
"2 	c #6E4732",
"3 	c #493424",
"4 	c #66402A",
"5 	c #643D28",
"6 	c #68422C",
"7 	c #6D4630",
"8 	c #67412B",
"9 	c #4D3828",
"0 	c #3B2E2F",
"a 	c #663F29",
"b 	c #653E29",
"c 	c #643D27",
"d 	c #3A2D2E",
"e 	c #6F4832",
"f 	c #6B452F",
"g 	c #6A442E",
"h 	c #1D131E",
"i 	c #372A2B",
"j 	c #4A3525",
"k 	c #312832",
"l 	c #4B3626",
"m 	c #4D3928",
"n 	c #3D3031",
"o 	c #392C2D",
"p 	c #653F29",
"q 	c #704934",
"r 	c #2F2730",
"s 	c #623B25",
"t 	c #704933",
"u 	c #4E3929",
"v 	c #463121",
"w 	c #473222",
"x 	c #78553E",
"y 	c #4A3625",
"z 	c #2F2630",
"A 	c #3C2F30",
"B 	c #633C27",
"C 	c #2E2533",
"D 	c #382B2B",
"E 	c #78543D",
"F 	c #2D242E",
"G 	c #483323",
"H 	c #4B3726",
"I 	c #76523B",
"J 	c #77533C",
"K 	c #3F3233",
"L 	c #79553E",
"M 	c #633C26",
"N 	c #4F3A2A",
"O 	c #6E4832",
"P 	c #453020",
"Q 	c #463221",
"R 	c #7B5740",
"S 	c #2C242D",
"T 	c #2E252F",
"U 	c #302731",
"V 	c #312831",
"W 	c #483423",
"X 	c #79563E",
"Y 	c #7D5942",
"Z 	c #643E28",
"` 	c #7A563F",
" .	c #2B222C",
"..	c #312932",
"+.	c #2E262F",
"@.	c #7C5941",
"#.	c #513C2C",
"$.	c #493524",
"%.	c #382B2C",
"&.	c #332627",
"*.	c #7A5740",
"=.	c #77543C",
"-.	c #2B232C",
";.	c #4F3A29",
">.	c #342728",
",.	c #623B26",
"'.	c #4E3928",
").	c #503B2B",
"!.	c #7B5840",
"~.	c #623C26",
"{.	c #714A34",
"].	c #2A212A",
"^.	c #77543D",
"/.	c #3E3132",
"(.	c #332A34",
"_.	c #342B34",
":.	c #6F4933",
"<.	c #271F28",
"[.	c #79563F",
"}.	c #2D242D",
"|.	c #302831",
"1.	c #633D27",
"2.	c #6D4731",
"3.	c #4C3827",
"4.	c #523D2D",
"5.	c #4C3726",
"6.	c #513C2B",
"7.	c #453120",
"8.	c #442F1F",
"9.	c #7D5A42",
"0.	c #322526",
"a.	c #4A3524",
"b.	c #7A573F",
"c.	c #714A35",
"d.	c #613A24",
"e.	c #724B35",
"f.	c #74513A",
"g.	c #75513A",
"h.	c #7C5942",
"i.	c #75523A",
"j.	c #46425D",
"k.	c #7D5A43",
"l.	c #3D3131",
"m.	c #726B7E",
"n.	c #7B5841",
"o.	c #352829",
"p.	c #4B3625",
"q.	c #322933",
"r.	c #3F3232",
"s.	c #603923",
"t.	c #322932",
"u.	c #473322",
"v.	c #332B34",
"w.	c #483322",
"x.	c #613A25",
"y.	c #413435",
"z.	c #704A34",
"A.	c #352C35",
"B.	c #B19998",
"C.	c #423536",
"D.	c #805C45",
"E.	c #76533C",
"F.	c #392C2C",
"G.	c #3B2E2E",
"H.	c #714E37",
"I.	c #36292A",
"J.	c #2C232D",
"K.	c #523D2C",
"L.	c #2A222B",
"M.	c #282029",
"N.	c #322A33",
"O.	c #2D252E",
"P.	c #3C3030",
"Q.	c #3C2F2F",
"R.	c #503C2B",
"S.	c #5F3823",
"T.	c #403434",
"U.	c #29202A",
"V.	c #271E28",
"W.	c #352C36",
"X.	c #734C36",
"Y.	c #7E5A43",
"Z.	c #745139",
"`.	c #2E252E",
" +	c #442F1E",
".+	c #4F3B2A",
"++	c #422E1D",
"@+	c #45301F",
"#+	c #473221",
"$+	c #533E2E",
"%+	c #4E3A29",
"&+	c #392D2D",
"*+	c #7F5C44",
"=+	c #55402F",
"-+	c #5F3923",
";+	c #714D36",
">+	c #735038",
",+	c #76533B",
"'+	c #403333",
")+	c #714E36",
"!+	c #735039",
"~+	c #523E2D",
"{+	c #75523B",
"]+	c #724E37",
"^+	c #7E5B43",
"/+	c #78553D",
"(+	c #5B341E",
"_+	c #7F5B44",
":+	c #7C5841",
"<+	c #432E1D",
"[+	c #745039",
"}+	c #362A2A",
"|+	c #312425",
"1+	c #5D3721",
"2+	c #422D1D",
"3+	c #6E4B33",
"t.+.U k (.U k `.r r  .U t.q.q.r S -. .T V (.r k k F `.q.+.-.-.t.t.+.U k (.U k `.r r  .U t.q.q.r S -. .T V (.r k k F `.q.+.-.-.t.",
"k # $ $ } g a d.~.( 5 - } f , ] , 2 q { % [ } $ { - ; O + < b k k # $ $ } g a d.~.( 5 - } f , ] , 2 q { % [ } $ { - ; O + < b k ",
"|.' p ^.+ + 1 s ( : g R + 6 a + ; 2 ; p J ; $ b _ $ , 8 [.[ { |.|.' p ^.+ + 1 s ( : g R + 6 a + ; 2 ; p J ; $ b _ $ , 8 [.[ { |.",
"k # $ $ } g a d.~.( 5 - } f , ] , 2 q { % [ } $ { - ; O + < b k k # $ $ } g a d.~.( 5 - } f , ] , 2 q { % [ } $ { - ; O + < b k ",
"k # $ $ } g a d.~.( 5 - } f , ] , 2 q { % [ } $ { - ; O + < b k k # $ $ } g a d.~.( 5 - } f , ] , 2 q { % [ } $ { - ; O + < b k ",
"|.' p ^.+ + 1 s ( : g R + 6 a + ; 2 ; p J ; $ b _ $ , 8 [.[ { |.|.' p ^.+ + 1 s ( : g R + 6 a + ; 2 ; p J ; $ b _ $ , 8 [.[ { |.",
"k # <+$ r.d &.o.l.r.$ W } A o n 0 i i ~.a.2 D &.o i o d f R.- k k # <+$ r.d &.o.l.r.$ W } A o n 0 i i ~.a.2 D &.o i o d f R.- k ",
"..S.s.% 0 B B ] ; n & % ; r.# # 4 M d & [ t D - ; , : K ' & ) ....S.s.% 0 B B ] ; n & % ; r.# # 4 M d & [ t D - ; , : K ' & ) ..",
"U s.< + | ) & % + m , 7 + l < ) & ] ;.[ 2 ; P c - - q K.8 8 ' U U s.< + | ) & % + m , 7 + l < ) & ] ;.[ 2 ; P c - - q K.8 8 ' U ",
"S ] ; ' 3 , , ] 6 y c 5 # | + _ 7 - u [ % 8 ++b $ ; t m a $ f S S ] ; ' 3 , , ] 6 y c 5 # | + _ 7 - u [ % 8 ++b $ ; t m a $ f S ",
"A.] ) 1 v - + ) % 9 - O q u 7 - - ; 6.; ( _ 3 8 2 e [ | b # _ A.A.] ) 1 v - + ) % 9 - O q u 7 - - ; 6.; ( _ 3 8 2 e [ | b # _ A.",
"v.S.,.,.w.O q O ) l f ; e | - + $ ; u _ 1 # G $ 2 q [ 3 c b ] v.v.S.,.,.w.O q O ) l f ; e | - + $ ; u _ 1 # G $ 2 q [ 3 c b ] v.",
"+.) ) & H } - & 5 $.t 2 % 3 ( ' # : j 1 p $ w # ; 7 < u.a & 7 +.+.) ) & H } - & 5 $.t 2 % 3 ( ' # : j 1 p $ w # ; 7 < u.a & 7 +.",
"F : + { j [.E.` i.j c.{ ) j {+L Z.X l ] _ ) 5.k.!.I I 3 & - 7 F F : + { j [.E.` i.j c.{ ) j {+L Z.X l ] _ ) 5.k.!.I I 3 & - 7 F ",
"<.e 6 # Q @.*.*.=.w g < B l ^.J L L v s & Z w R R x Y N ; % $ <.<.e 6 # Q @.*.*.=.w g < B l ^.J L L v s & Z w R R x Y N ; % $ <.",
"z 2 c c ] + - ) 8 c < 1 g ; , ] + , ) 4 } _ + 2 ' } e.e % - , z z 2 c c ] + - ) 8 c < 1 g ; , ] + , ) 4 } _ + 2 ' } e.e % - , z ",
"V } 1 L & ' < ,.$ ( % *.{ ; ] ( : ' a - D.; g } % { z.: E % < V V } 1 L & ' < ,.$ ( % *.{ ; ] ( : ' a - D.; g } % { z.: E % < V ",
"_.b  +- 0 G.i i A P.2 ~+[ /.>.I.F.o i - 5.} o %.D Q.l.d M W & _._.b  +- 0 G.i i A P.2 ~+[ /.>.I.F.o i - 5.} o %.D Q.l.d M W & _.",
" .B Z , I.] ] & q n ' + < F.8.] + $.o _ ; ) o ) & & 2 0 b , g  . .B Z , I.] ] & q n ' + < F.8.] + $.o _ ; ) o ) & & 2 0 b , g  .",
"U.] , { | & & ; + Q B a 1 7.6 $ { g u } ; - 9 ) { ; t | b < , U.U.] , { | & & ; + Q B a 1 7.6 $ { g u } ; - 9 ) { ; t | b < , U.",
"(.: ] ( l # _ - # 8.$ q e 9 7 : g ( j _ f - 9 O [ z.: l % ; - (.(.: ] ( l # _ - # 8.$ q e 9 7 : g ( j _ f - 9 O [ z.: l % ; - (.",
"..:.1 < l ) } [ % 3 + t ; G , , 5 8 3., ) & j $ ' : 6 w.) % ) ....:.1 < l ) } [ % 3 + t ; G , , 5 8 3., ) & j $ ' : 6 w.) % ) ..",
"}.; s x.m } 7 { 4 j ' % ) G 8 , , $ 9 + % ' P 1 } , s v , ( 1 }.}.; s x.m } 7 { 4 j ' % ) G 8 , , $ 9 + % ' P 1 } , s v , ( 1 }.",
"N.1 M B y { & B s m [ & 2 '.% & ' :.6.' % & 7.] e ' 5 | [ _ : N.N.1 M B y { & B s m [ & 2 '.% & ' :.6.' % & 7.] e ' 5 | [ _ : N.",
"z (+s b w @.@.]+J 4.c.- & 9 ` n.Y Y '.- , ; 9 h.D.!.i.).+ ( { z z (+s b w @.@.]+J 4.c.- & 9 ` n.Y Y '.- , ; 9 h.D.!.i.).+ ( { z ",
"V.] ; & P *.!.H.I #.4 d.M Q f.I E R | ] ] ; ).Y ^+Y ` 9 $ 4 { V.V.] ; & P *.!.H.I #.4 d.M Q f.I E R | ] ] ; ).Y ^+Y ` 9 $ 4 { V.",
"F _ ; { ] , # 5 # c._ < ) ] $ ~.Z # # ' < + 2 ' ) - ' ; $ - 2 F F _ ; { ] , # 5 # c._ < ) ] $ ~.Z # # ' < + 2 ' ) - ' ; $ - 2 F ",
"W.6 ] E # b # ' - q ' X {.# ) g t q ; + [.{ ; - 5 p f & /+7 t W.W.6 ] E # b # ' - q ' X {.# ) g t q ; + [.{ ; - 5 p f & /+7 t W.",
"r : v 5 0 A n A o n ) v ' 0.i /.K '+&+_ | g K d i 0 K i c y 7 r r : v 5 0 A n A o n ) v ' 0.i /.K '+&+_ | g K d i 0 K i c y 7 r ",
"r [ p 5 A N & % 3 d ( , ' 0.P e & w o.- & , A $.$ { u %.$ C , r r [ C 5 A N & % 3 d ( , ' 0.P e & w o.- & , A $.$ { u %.$ + , r ",
"r : $ 1 u 2 + # - 3 % { & w - [ ) ] 3 % + % 9 $ 4 { # G h m.h r r h m.h u 2 + # - 3 % { & w - [ ) ] 3 % + % 9 $ 4 { # G & ; ; r ",
"r : ] 1.G + 2 # 4 u.& ; ' w # # < { u - f ' 9 , ] 2 ' j h h h r r h h h G + 2 # 4 u.& ; ' w # # < { u - f ' 9 , ] 2 ' j - & , r ",
"+.[ 4 B H e } a s H + f - G 1 8 # ; 9 1 ; e N g $ + 2 | C j.C +.+.C j.C H e } a s H + f - G 1 8 # ; 9 1 ; e N g $ + 2 | & % % +.",
"S & 1 % 4.: ) p c 9 ' , # 3 ] , _ % G M { [ | _ # + } H h B.h S S h B.h 4.: ) p c 9 ' , # 3 ] , _ % G M { [ | _ # + } H $ % - S ",
"].p ) } #.) p 8 a y - 1 b y % % { f 9 ) - ' a.- & , & '.h B.h ].].h B.h #.) p 8 a y - 1 b y % % { f 9 ) - ' a.- & , & '.) , e ].",
"J.' 2.{ | !+)+^.I y ) # # | =.,+Y.9.N q } $ #+g.b.R ` '.C m.C J.J.C m.C | !+)+^.I y ) # # | =.,+Y.9.N q } $ #+g.b.R ` '.: ( ; J.",
"z % - , $.I f.J J 3 - { & 3.J >+9.@.| [ ' ) H L x ^.f.| C m.C z z C m.C $.I f.J J 3 - { & 3.J >+9.@.| [ ' ) H L x ^.f.| ' # ' z ",
"k $ c s $ - , < ( # ; {.{ % & _ [ + b # 6 # 2.e [ { Z - C j.C k k C j.C $ - , < ( # ; {.{ % & _ [ + b # 6 # 2.e [ { Z - + , & k ",
"].& M 3+s 6 , a 4 # ( Y b ( % , ; ' s ( X b < g : ' # : h j.h ].].h j.h s 6 , a 4 # ( Y b ( % , ; ' s ( X b < g : ' # : @.8 $ ].",
"<.) 2+1+D l.0 d 0 d p v M >.d G.o i i g H ] D y.C.d o.d h h h <.<.h h h D l.0 d 0 d p v M >.d G.o i i g H ] D y.C.d o.d 7 j & <.",
"V ) x.c n $+2 & u i $ { { i p.+ % | y.[ 2 e K =+e.$ P d 2 # g V V ) x.c n $+2 & u i $ { { i p.+ % | y.[ 2 e K =+e.$ P d 2 # g V ",
"_._ 5 ( | + , - % Q 6 O [ m , % # 2 K.: ; q | $ ( 1 ] 9 {.4 8 _._._ 5 ( | + , - % Q 6 O [ m , % # 2 K.: ; q | $ ( 1 ] 9 {.4 8 _.",
" .' 4 $ m $ 8 ( 5 8.1 $ 4 3 - + # , 3 a 1 < v # - ] # a.% B <  . .' 4 $ m $ 8 ( 5 8.1 $ 4 3 - + # , 3 a 1 < v # - ] # a.% B <  .",
"-.+ ( 6 )._ c ( a w < 4 ] 3 % # ( 7 m $ , $ | & { ) $ P ~.1 , -.-.+ ( 6 )._ c ( a w < 4 ] 3 % # ( 7 m $ , $ | & { ) $ P ~.1 , -.",
"..- 4 , m 1.s.$ ; 9 { : ; j $ _ % t 4.& - & .+' $ % , v ] t f ....- 4 , m 1.s.$ ; 9 { : ; j $ _ % t 4.& - & .+' $ % , v ] t f ..",
"T % < f | -+M : t #.- ' % @+& ' _ [ R.4 $ % p.# $ % ' 5.+ e.# T T % < f | -+M : t #.- ' % @+& ' _ [ R.4 $ % p.# $ % ' 5.+ e.# T ",
"F $ 5 ] v H.E b.I W 1 p ) W 9.k.` R N $ - 2.3.x X x J | { : $ F F $ 5 ] v H.E b.I W 1 p ) W 9.k.` R N $ - 2.3.x X x J | { : $ F ",
"k 1 s B P ;+x @.x 3 $ - 7 j x L b.*+#.f - e | E.x X E 9 _ % + k k 1 s B P ;+x @.x 3 $ - 7 j x L b.*+#.f - e | E.x X E 9 _ % + k ",
"L.4 ] , $ < + } & 7 : { < c 5 ; 7 & f } # - ' - : { # - % ( - L.L.4 ] , $ < + } & 7 : { < c 5 ; 7 & f } # - ' - : { # - % ( - L.",
"M.( - h._ p $ 4 5 6 - x 5 c & O + % & _ g.c + : { { 6 % !.) % M.M.( - h._ p $ 4 5 6 - x 5 c & O + % & _ g.c + : { { 6 % !.) % M.",
"F < l $ &.>.D D %.n & j ) 0 T./.0 K C.: G b 0 %.&.>.&.0 : m + F F < l $ &.>.D D %.n & j ) 0 T./.0 K C.: G b 0 %.&.>.&.0 : m + F ",
"O.,.- p 0.7.< ( ;.K - ) , n u , $ N n a d.< 0 3 s 5 w d ; ) - O.O.,.- p 0.7.< ( ;.K - ) , n u , $ N n a d.< 0 3 s 5 w d ; ) - O.",
"S p & ' y 7 % 4 + | ( 8 # 3 8 c % ; 3 1.b ] l & & & + u ' # _ S S p & ' y 7 % 4 + | ( 8 # 3 8 c % ; 3 1.b ] l & & & + u ' # _ S ",
"T # _ - m + & ) + m ( $ , y % % ; 7 l - + _ ;.t 7 { e %++ 5 1 T T # _ - m + & ) + m ( $ , y % % ; 7 l - + _ ;.t 7 { e %++ 5 1 T ",
"z a 6 & 3 Z ( ] 7 9 a a & l } } < % Q 8 % < m X.: & { l ) c $ z z a 6 & 3 Z ( ] 7 9 a a & l } } < % Q 8 % < m X.: & { l ) c $ z ",
"U 1 ; % W 8 a 8 + l 5 ) ' 9 ' } ] ' | 5 $ $ H : 8 ) % W c 1.e U U 1 ; % W 8 a 8 + l 5 ) ' 9 ' } ] ' | 5 $ $ H : 8 ) % W c 1.e U ",
"k $ } ) v $ , ) _ Q 4 [ } ).[ [ % 2.#.# - 6 y { Z < ' j ] - q k k $ } ) v $ , ) _ Q 4 [ } ).[ [ % 2.#.# - 6 y { Z < ' j ] - q k ",
"z 6 & f Q x L I R w $ ; - N k.E g.E ;.6 # + m h.=.` _+$.< :.X.z z 6 & f Q x L I R w $ ; - N k.E g.E ;.6 # + m h.=.` _+$.< :.X.z ",
"T 4 ( % 3 =.X E n.3 ' ; _ j *.Z.[+=.u ( ( :.6.n.i.E :+| + ; ; T T 4 ( % 3 =.X E n.3 ' ; _ j *.Z.[+=.u ( ( :.6.n.i.E :+| + ; ; T ",
"V ( % L ] ] - ' : { + ` { - 6 % $ : 2 # [.{.[ ' _ { : _ J 6 < V V ( % L ] ] - ' : { + Y.{ - 6 % $ : 2 # [.{.[ ' _ { : _ J b < V ",
"}.Z =+Z 8 + - ' g - , =+( a # } , : + ( =+p ; ) ] - ' $ 5 K.p }.}.8 K.~.6 + _ ' % , 6 =+Z a # } , : + 8 =+- ; ) ] - ' 8 Z 6., }.",
"V < =+p ( # - ' + g _ =+- , 6 % $ : 2 1.=+_ [ ' _ { : _ x.x.5 V V ( =+8 ] ] - ' : { 1.K.p - 6 % $ : 2 8 1.f 2 ' _ { : 6 p =+Z V ",
"}.$ 6.4 8 + _ ' % , + H ) a # } , : + 6 9 { ; ) ] - ' $ (  +- }.}.$ ;.# 6 + _ ' % , + 9 ) a # } , : + 6 y { ; ) ] - ' $ < #+- }.",
"|.0 A 0 o %.0 P.Q.n n A A o D A o /.0 D 0 T.n o d n K d }+|+i |.|.0 A 0 o %.0 P.Q.n n A A o D A o /.0 D 0 T.n o d n K d }+|+i |."};
